<?xml version="1.0" standalone="no"?> <!DOCTYPE svg PUBLIC "-//W3C//DTD SVG 1.0//EN" "http://www.w3.org/TR/2001/REC-SVG-20010904/DTD/svg10.dtd" > <svg xmlns="http://www.w3.org/2000/svg" width="100%" height="100%">
<defs >
<font id="GS200" horiz-adv-x="489" ><font-face
    font-family="GillSansLight"
    units-per-em="1000"
    panose-1="2 0 6 6 3 0 0 2 0 3"
    ascent="0"
    descent="0"
    alphabetic="0" />
<missing-glyph horiz-adv-x="278" />
<glyph unicode=" " glyph-name="uni0020" horiz-adv-x="278" />
<glyph unicode="!" glyph-name="exclam" horiz-adv-x="177" d="M121 682H57L65 357L74 192H102L112 357L121 682ZM121 96H57V0H121V96Z" />
<glyph unicode="&quot;" glyph-name="quotedbl" horiz-adv-x="278" d="M37 691V575L52 443H95L110 575V691H37ZM166 691V575L182 443H225L241 575V691H166Z" />
<glyph unicode="#" glyph-name="numbersign" horiz-adv-x="668" d="M46 464V420H201L159 222H46V179H150L108 -23H151L193 179H416L373 -23H417L458 179H621V222H467L509 420H621V464H517L560 667H517L475 464H252L295 667H253L210 464H46ZM243 420H466L425 223H202L243
420Z" />
<glyph unicode="$" glyph-name="dollar" horiz-adv-x="521" d="M455 600Q433 615 414 626T375 644T333 655T283 661V691H236V661Q218 659 206 658T184 654T163 649T140 639Q95 619 68 580T41 495Q41 432 88 389T236 315V39Q219 41 206 43T182 49T161 55T137 65Q122
72 111 77T89 89T66 104T35 126V71Q47 60 57 53T76 40T97 29T124 17Q140 10 152 6T176 -1T203 -6T236 -9V-117H283V-9Q328 -6 365 8T428 46T469 100T484 167Q484 204 467 237T418 293Q392 313 361 326T283 353V613Q298 611 308 610T328 607T347 601T369 593Q381
588 391 584T410 574T430 561T455 544V600ZM236 368L221 373Q196 382 179 389T150 403T129 419T111 438Q90 463 90 498Q90 522 101 542T132 578T178 603T236 613V368ZM283 299Q364 274 398 243T433 163Q433 138 422 116T390 78T343 51T283 40V299Z" />
<glyph unicode="%" glyph-name="percent" horiz-adv-x="698" d="M341 529Q341 562 328 591T294 643T243 677T180 690Q147 690 118 678T66 643T32 592T19 530Q19 497 31 468T65 416T116 382T179 369Q212 369 241 381T293 415T328 466T341 529ZM298 530Q298 506
289 484T263 446T225 421T179 411Q155 411 134 420T96 446T71 484T62 530Q62 554 71 575T96 613T133 638T179 647Q204 647 225 638T263 613T288 576T298 530ZM679 148Q679 181 667 210T632 262T581 296T518 309Q485 309 456 297T404 263T370 212T357 150Q357 116
369 87T404 35T455 1T517 -12Q551 -12 580 0T632 35T666 86T679 148ZM637 150Q637 125 628 104T602 66T564 41T517 31Q493 31 472 40T435 66T410 103T401 150Q401 174 410 195T435 232T472 257T518 266Q542 266 564 257T602 232T627 195T637 150ZM645 688H596L46
-11H96L645 688Z" />
<glyph unicode="&amp;" glyph-name="ampersand" horiz-adv-x="615" d="M508 340Q492 293 475 257T433 186L278 347Q294 355 305 361T325 373T342 385T360 400Q389 426 405 459T421 528Q421 559 410 584T379 629T332 658T272 669Q238 669 209 658T157 626T123 579T110
520Q110 502 113 486T125 452T148 416T185 373Q187 371 189 368T195 361Q113 326 70 273T26 154Q26 119 40 90T80 38T139 4T212 -9Q252 -9 294 5T372 44Q381 51 388 56T403 69T418 85T439 107L542 0H609L470 147Q480 160 486 170T499 191T511 214T525 244Q532 259
537 270T547 292T555 314T564 340H508ZM244 384Q161 461 161 523Q161 544 169 561T192 592T226 613T269 621Q314 621 343 594T372 524Q372 481 339 446T244 384ZM403 144Q316 39 218 39Q189 39 165 48T122 74T94 114T84 164Q84 215 119 253T230 324L403 144Z" />
<glyph unicode="&apos;" glyph-name="quotesingle" horiz-adv-x="222" d="M75 691V574L90 444H134L147 574V691H75Z" />
<glyph unicode="(" glyph-name="parenleft" horiz-adv-x="333" d="M276 689Q259 671 247 658T225 632T206 608T186 579Q135 502 108 413T80 231Q80 137 108 46T189 -124Q200 -140 209 -152T227 -176T248 -200T276 -229H326Q305 -208 290 -193T262 -162T240 -131T216
-92Q174 -19 152 63T130 232Q130 319 152 398T220 556Q234 580 245 597T268 629T293 657T326 689H276Z" />
<glyph unicode=")" glyph-name="parenright" horiz-adv-x="333" d="M8 689Q27 671 40 658T65 630T88 598T113 556Q159 477 181 398T203 232Q203 146 181 64T117 -92Q105 -114 94 -130T71 -162T44 -192T8 -229H57Q73 -213 85 -201T106 -177T125 -153T145 -124Q197
-46 225 45T253 231Q253 324 226 413T147 579Q136 595 128 607T109 632T87 657T57 689H8Z" />
<glyph unicode="*" glyph-name="asterisk" horiz-adv-x="469" d="M395 613L361 648L246 511H243H240L258 691H212L228 511H226H223L110 648L75 613L212 500Q213 500 213 498Q213 498 213 497Q213 497 212 496L32 511V464L212 484Q213 481 216 478L75 364L110 330L223
469H226H228L212 285H258L240 469Q241 469 241 469T243 468Q244 468 244 468T246 469L361 330L395 364L258 478Q255 479 255 481Q255 482 258 484L437 464V511L258 496Q256 497 256 497Q256 498 256 498Q256 499 258 500L395 613Z" />
<glyph unicode="+" glyph-name="plus" horiz-adv-x="667" d="M70 341V298H311V59H354V298H596V341H354V582H311V341H70Z" />
<glyph unicode="," glyph-name="comma" horiz-adv-x="177" d="M121 95H56V0H77V-8Q77 -29 72 -46T56 -83V-117Q121 -70 121 37V95Z" />
<glyph unicode="-" glyph-name="hyphen" horiz-adv-x="313" d="M275 249H38V202H275V249Z" />
<glyph unicode="." glyph-name="period" horiz-adv-x="177" d="M121 97H56V0H121V97Z" />
<glyph unicode="/" glyph-name="slash" horiz-adv-x="278" d="M233 728L-1 -18H46L279 728H233Z" />
<glyph unicode="0" glyph-name="zero" horiz-adv-x="500" d="M468 338Q468 418 453 483T409 595T340 666T250 691Q209 691 173 672T107 615Q69 567 51 498T32 330Q32 254 48 192T93 85T162 16T252 -9Q340 -9 404 82Q436 130 452 192T468 338ZM418 344Q418 277
406 221T371 125T318 63T249 40Q212 40 182 62T130 124T96 219T84 342Q84 409 96 464T131 560T183 622T251 645Q288 645 319 623T372 561T406 466T418 344Z" />
<glyph unicode="1" glyph-name="one" horiz-adv-x="500" d="M276 682H224V0H276V682Z" />
<glyph unicode="2" glyph-name="two" horiz-adv-x="500" d="M45 570Q69 591 88 605T126 629T162 641T200 645Q232 645 260 634T308 602T340 555T352 496Q352 446 328 386T259 260Q239 231 217 202T168 142Q147 116 132 98T102 65T73 35T35 0H470V48H153L168 67L212
118Q255 170 302 238Q356 319 380 379T404 495Q404 536 389 572T346 634T283 676T204 691Q119 691 45 629V570Z" />
<glyph unicode="3" glyph-name="three" horiz-adv-x="500" d="M50 598Q120 644 191 644Q224 644 253 635T303 608T336 567T348 516Q348 457 302 421T178 383V335H186Q225 335 256 324T309 294T344 246T356 183Q356 150 345 124T312 78T262 48T196 37Q116 37 44
72V25Q77 9 119 0T201 -9Q246 -9 283 5T348 46T390 108T405 187Q405 246 376 292Q368 305 359 315T338 333T311 347T274 361V363Q293 368 310 377Q350 397 373 435T397 519Q397 557 382 588T340 643T276 678T194 691Q110 691 50 647V598Z" />
<glyph unicode="4" glyph-name="four" horiz-adv-x="500" d="M376 691H357L14 280V263H325V0H376V263H471V304H376V691ZM325 304H85L323 592H325V304Z" />
<glyph unicode="5" glyph-name="five" horiz-adv-x="500" d="M386 682H99V365Q117 369 130 371T153 375T173 377T195 378Q235 378 268 366T324 332T360 278T373 208Q373 171 361 140T326 86T273 51T206 38Q169 38 131 51T41 94V36Q86 13 125 2T205 -9Q253 -9 293
7T363 53T409 123T426 212Q426 260 410 299T365 365T293 408T199 423Q185 423 175 422T145 419V636H386V682Z" />
<glyph unicode="6" glyph-name="six" horiz-adv-x="500" d="M345 691Q331 680 324 676Q308 664 289 647T250 612T213 576T182 541Q61 400 61 231Q61 176 75 132T117 57T182 8T269 -9Q311 -9 347 5T408 44T448 105T463 183Q463 223 449 257T409 316T348 355T272
369Q194 369 121 316Q123 325 124 331T126 340Q134 376 158 421T212 504Q225 521 243 540T286 582Q301 597 312 606T332 624T351 639T375 655L345 691ZM112 257Q151 291 187 306T265 321Q296 321 323 310T369 280T400 234T412 176Q412 147 401 122T371 79T325 50T267
39Q196 39 153 88T110 221Q110 227 110 236T112 257Z" />
<glyph unicode="7" glyph-name="seven" horiz-adv-x="500" d="M475 682H29V635H401L119 10L163 -9L475 682Z" />
<glyph unicode="8" glyph-name="eight" horiz-adv-x="500" d="M344 355Q431 413 431 510Q431 547 417 580T378 637T320 676T249 691Q213 691 180 677T123 637T84 579T69 509Q69 471 88 431Q101 405 115 390T158 355Q107 325 82 281T56 182Q56 142 71 107T112 47T175
6T252 -9Q292 -9 327 6T389 47T430 109T445 186Q445 294 344 355ZM381 510Q381 482 371 458T344 416T304 388T252 378Q223 378 199 388T156 415T128 457T118 509Q118 537 128 561T156 603T198 631T249 641Q277 641 301 631T343 604T371 562T381 510ZM393 189Q393
157 383 130T354 84T309 53T253 42Q223 42 196 53T150 83T119 128T107 184Q107 214 118 240T148 285T194 316T250 328Q280 328 306 317T352 288T382 244T393 189Z" />
<glyph unicode="9" glyph-name="nine" horiz-adv-x="500" d="M144 -9Q166 7 181 19T209 40T231 59T254 80Q344 164 389 257T434 452Q434 507 420 551T378 627T312 674T225 691Q183 691 148 677T87 638T47 578T32 501Q32 461 46 427T86 368T146 329T222 315Q260
315 294 326T372 365Q368 343 364 327T354 295T339 264T315 226Q298 200 281 178T244 135T198 93T138 45L116 28L144 -9ZM381 426Q311 363 225 363Q195 363 169 373T124 403T95 448T84 504Q84 534 95 560T125 605T170 635T227 646Q299 646 340 598T382 465Q382
457 382 447Q382 437 381 426Z" />
<glyph unicode=":" glyph-name="colon" horiz-adv-x="177" d="M121 449H56V352H121V449ZM121 97H56V0H121V97Z" />
<glyph unicode=";" glyph-name="semicolon" horiz-adv-x="177" d="M121 95H56V0H77V-8Q77 -29 72 -46T56 -83V-117Q121 -70 121 37V95ZM121 449H56V353H121V449Z" />
<glyph unicode="&lt;" glyph-name="less" horiz-adv-x="667" d="M595 79V127L129 321L595 514V561L72 340V302L595 79Z" />
<glyph unicode="=" glyph-name="equal" horiz-adv-x="667" d="M72 457V414H595V457H72ZM72 231V187H595V231H72Z" />
<glyph unicode="&gt;" glyph-name="greater" horiz-adv-x="667" d="M72 561V514L538 320L72 126V79L595 300V339L72 561Z" />
<glyph unicode="?" glyph-name="question" horiz-adv-x="281" d="M25 595H35Q68 648 114 648Q146 648 168 621T190 554Q190 490 139 408Q116 371 103 349T84 311T76 285T74 257Q74 210 113 165L131 179L127 187Q118 204 115 216T112 242Q112 265 121 288T151 342Q172
373 183 390T197 410Q217 442 229 479T241 549Q241 613 207 652T116 691Q98 691 83 687T48 673L25 595ZM150 98H85V0H150V98Z" />
<glyph unicode="@" glyph-name="at" horiz-adv-x="800" d="M558 495L542 413H540Q527 438 517 450T490 476Q447 507 392 507Q342 507 297 483T217 417T163 322T143 206Q143 161 155 124T190 59T244 16T312 0Q355 0 398 23Q411 30 421 36T440 49T457 66T477 90L479
88Q477 77 476 68T475 52Q475 0 534 0Q560 0 591 11T650 43Q715 91 750 164T786 326Q786 408 755 481T666 602Q572 681 423 681Q328 681 250 650T116 562T29 426T-2 251Q-2 156 28 79T115 -53T249 -139T424 -169Q499 -169 568 -150T691 -93Q710 -80 724 -69T750
-45T775 -16T802 23H752Q738 5 727 -8T706 -31T684 -49T658 -67Q610 -98 551 -114T424 -130Q338 -130 267 -103T146 -25T67 95T39 250Q39 336 67 408T145 531T265 612T419 641Q484 641 539 625T634 577Q659 557 680 530T715 469T737 400T745 326Q745 257 720 196T649
92Q625 69 600 57T554 44Q543 44 537 49T530 63Q530 66 530 70T532 81L536 103L619 495H558ZM518 326Q518 317 517 303T512 273T506 242T498 214Q476 151 438 105Q415 76 387 61T330 46Q303 46 280 57T241 90T215 140T205 203Q205 255 220 302T261 386T321 443T393
464Q420 464 443 454T482 425T508 382T518 326Z" />
<glyph unicode="A" glyph-name="A" horiz-adv-x="667" d="M348 687H317L4 0H59L167 236H500L608 0H663L348 687ZM479 281H186L333 601L479 281Z" />
<glyph unicode="B" glyph-name="B" horiz-adv-x="531" d="M80 682V0H258Q292 0 318 2T366 9T406 24T442 46Q509 95 509 181Q509 250 469 293T351 354Q402 382 425 418T449 506Q449 557 422 599T349 660Q334 667 319 671T286 677T243 681T186 682H80ZM133 637H184Q229
637 261 633T317 620T356 595T381 559Q392 531 392 501Q392 466 377 437T334 392Q310 378 279 372T197 366H133V637ZM133 322H227Q265 322 293 320T342 313T379 299T409 279Q451 241 451 182Q451 146 436 118T393 73Q367 56 336 50T251 44H133V322Z" />
<glyph unicode="C" glyph-name="C" horiz-adv-x="677" d="M647 634Q585 663 525 677T407 691Q332 691 267 664T154 590T78 478T50 339Q50 264 77 201T153 91T268 18T413 -9Q472 -9 533 7T654 55V110Q585 74 528 58T413 42Q346 42 291 64T195 125T132 219T109 340Q109
406 131 461T194 557T291 619T415 641Q444 641 471 638T525 627T582 607T647 576V634Z" />
<glyph unicode="D" glyph-name="D" horiz-adv-x="740" d="M79 682V0H285Q338 0 373 1T434 8T482 22T530 47Q607 91 648 167T690 340Q690 438 649 514T530 636Q504 651 482 660T434 674T373 680T286 682H79ZM132 638H292Q334 638 363 636T415 629T457 615T500 590Q564
549 597 485T631 340Q631 260 597 195T500 90Q478 76 458 67T414 53T361 45T292 43H132V638Z" />
<glyph unicode="E" glyph-name="E" horiz-adv-x="490" d="M452 682H80V0H460V43H133V322H444V366H133V638H452V682Z" />
<glyph unicode="F" glyph-name="F" horiz-adv-x="438" d="M429 682H79V0H131V335H400V379H131V638H429V682Z" />
<glyph unicode="G" glyph-name="G" horiz-adv-x="719" d="M650 633Q614 649 584 660T526 678T472 688T416 691Q337 691 270 665T154 593T78 482T50 343Q50 270 78 206T154 94T268 19T407 -9Q467 -9 535 6Q556 11 571 15T601 23T629 34T663 49V311H466V266H610V82Q557
61 506 50T406 39Q343 39 289 62T195 125T132 221T109 340Q109 405 131 460T194 555T288 618T408 641Q461 641 523 627Q545 621 560 617T590 606T618 593T650 573V633Z" />
<glyph unicode="H" glyph-name="H" horiz-adv-x="719" d="M640 682H587V368H131V682H79V0H131V323H587V0H640V682Z" />
<glyph unicode="I" glyph-name="I" horiz-adv-x="208" d="M131 682H77V0H131V682Z" />
<glyph unicode="J" glyph-name="J" horiz-adv-x="208" d="M136 682H82V17Q82 -43 75 -74T48 -125Q22 -151 -20 -151Q-28 -151 -32 -150T-45 -147L-39 -199H-31H-17Q13 -198 32 -193T71 -173Q106 -147 121 -105T136 11V682Z" />
<glyph unicode="K" glyph-name="K" horiz-adv-x="531" d="M522 682H456L128 342V682H76V0H128V342L486 0H554L197 342L522 682Z" />
<glyph unicode="L" glyph-name="L" horiz-adv-x="469" d="M131 682H79V0H469V43H131V682Z" />
<glyph unicode="M" glyph-name="M" horiz-adv-x="781" d="M702 682H647L390 365L131 682H78V0H130V605H132L390 286L648 605H650V0H702V682Z" />
<glyph unicode="N" glyph-name="N" horiz-adv-x="771" d="M693 682H640V86L127 682H78V0H131V600L649 0H693V682Z" />
<glyph unicode="O" glyph-name="O" horiz-adv-x="823" d="M773 344Q773 417 746 480T669 591T554 664T412 691Q335 691 269 665T154 591T78 481T50 342Q50 268 78 204T154 93T269 18T411 -9Q487 -9 553 18T668 92T745 204T773 344ZM714 344Q714 279 691 224T627
128T530 64T410 41Q347 41 292 64T197 127T133 222T110 340Q110 404 133 458T197 553T293 617T413 640Q476 640 531 617T626 554T690 460T714 344Z" />
<glyph unicode="P" glyph-name="P" horiz-adv-x="510" d="M79 682V0H131V319H224Q261 319 287 320T332 324T367 332T400 347Q441 368 464 409T488 502Q488 553 467 591T403 653Q387 662 372 668T336 677T288 681T217 682H79ZM131 639H219Q283 639 319 632T379
608Q402 591 415 563T429 501Q429 467 416 438T380 393Q367 384 353 379T321 370T280 365T227 363H131V639Z" />
<glyph unicode="Q" glyph-name="Q" horiz-adv-x="823" d="M744 -74L732 -64Q714 -78 699 -83T665 -89Q655 -89 641 -87T613 -82Q570 -71 533 -54T452 -7Q479 -3 499 1T535 10T568 23T603 42Q683 89 728 168T773 342Q773 417 746 480T670 591T555 664T412 691Q335
691 269 664T154 590T78 479T50 340Q50 271 74 211T142 104T244 28T374 -7Q401 -30 436 -53T509 -94Q530 -104 549 -111T589 -124T633 -134T684 -143L744 -74ZM714 341Q714 278 691 223T626 128T529 64T409 41Q346 41 291 64T196 128T132 224T108 342Q108 405 131
459T196 555T293 619T413 643Q476 643 531 620T626 556T690 460T714 341Z" />
<glyph unicode="R" glyph-name="R" horiz-adv-x="573" d="M79 682V0H132V327H205Q230 327 247 326T277 323T299 317T318 306Q325 301 335 291T357 267T380 238T402 206L533 0H596Q585 17 579 26T564 47L545 77L487 165L441 236Q413 279 393 302T350 340Q480 388
480 507Q480 559 452 601T377 662Q362 668 347 672T314 678T271 681T214 682H79ZM132 638H218Q269 638 301 633T357 616Q386 601 403 571T420 505Q420 470 403 439T358 394Q346 388 332 384T300 377T259 373T205 372H132V638Z" />
<glyph unicode="S" glyph-name="S" horiz-adv-x="469" d="M399 648Q322 691 241 691Q200 691 165 677T104 639T62 581T47 511Q47 486 54 462T77 417Q88 400 100 388T129 366T171 345T232 322Q255 314 275 305T312 286Q340 268 356 239T373 176Q373 147 362 123T331
80T285 52T227 41Q189 41 153 55Q139 61 129 65T109 76T85 91T54 113V51Q146 -9 229 -9Q271 -9 307 5T369 45T411 105T427 179Q427 249 387 294T253 373Q227 382 206 391T168 408Q137 424 119 452T101 513Q101 541 112 565T142 606T188 634T246 644Q264 644 280
642T313 633T351 617T399 590V648Z" />
<glyph unicode="T" glyph-name="T" horiz-adv-x="573" d="M569 682H4V638H260V0H314V638H569V682Z" />
<glyph unicode="U" glyph-name="U" horiz-adv-x="698" d="M634 682H582V328Q582 268 573 225T544 146Q518 96 466 68T349 40Q284 40 233 68T153 148Q133 183 125 225T116 328V682H64V338Q64 294 66 262T74 204T89 156T114 112Q152 53 213 22T350 -9Q426 -9 487
22T586 114Q600 136 609 157T623 204T631 262T634 338V682Z" />
<glyph unicode="V" glyph-name="V" horiz-adv-x="594" d="M591 682H538L298 105L56 682H2L289 -5H306L591 682Z" />
<glyph unicode="W" glyph-name="W" horiz-adv-x="1031" d="M1032 682H979L751 116L524 682H507L279 116L53 682H-1L272 -5H288L515 569L744 -5H760L1032 682Z" />
<glyph unicode="X" glyph-name="X" horiz-adv-x="688" d="M671 682H606L344 388L82 682H16L311 349L0 0H67L344 312L620 0H688L378 349L671 682Z" />
<glyph unicode="Y" glyph-name="Y" horiz-adv-x="583" d="M584 682H519L291 412L64 682H0L264 366V0H317V366L584 682Z" />
<glyph unicode="Z" glyph-name="Z" horiz-adv-x="635" d="M607 682H32V639H521L9 15V0H611V43H96L607 664V682Z" />
<glyph unicode="[" glyph-name="bracketleft" horiz-adv-x="302" d="M295 682H69V-221H295V-174H118V634H295V682Z" />
<glyph unicode="\" glyph-name="backslash" horiz-adv-x="278" d="M-1 728L232 -18H279L45 728H-1Z" />
<glyph unicode="]" glyph-name="bracketright" horiz-adv-x="302" d="M7 682V634H185V-174H7V-221H233V682H7Z" />
<glyph unicode="^" glyph-name="asciicircum" horiz-adv-x="660" d="M330 691L111 429L142 403L330 628L517 403L549 429L330 691Z" />
<glyph unicode="_" glyph-name="underscore" horiz-adv-x="500" d="M-10 -135V-166H510V-135H-10Z" />
<glyph unicode="`" glyph-name="grave" horiz-adv-x="333" d="M159 639H62L172 510H222L159 639Z" />
<glyph unicode="a" glyph-name="a" horiz-adv-x="427" d="M421 78Q402 61 383 50T355 38Q350 38 348 42T346 58V83V313Q346 336 345 352T341 380T333 400T318 418Q299 437 270 447T206 458Q170 458 137 447T62 410V361Q104 392 133 403T198 415Q298 415 298 326V269Q170
262 103 221T36 105Q36 81 45 61T71 25T109 0T157 -9Q193 -9 226 4T298 47Q301 12 307 2T331 -9Q345 -9 364 1T421 38V78ZM298 89Q263 57 234 44T173 30Q135 30 110 51T84 104Q84 124 93 142T118 176T157 203T207 221Q219 224 228 225T246 228T268 229T298 230V89Z"
/>
<glyph unicode="b" glyph-name="b" horiz-adv-x="510" d="M62 25Q108 6 144 -1T221 -9Q278 -9 324 8T403 58T454 136T472 239Q472 287 458 327T417 397T353 442T272 458Q249 458 230 455T191 443T153 420T110 385V682H62V25ZM110 331Q151 376 187 396T266 416Q299
416 327 402T376 364T409 307T421 234Q421 191 406 155T365 93T301 52T221 37Q169 37 110 59V331Z" />
<glyph unicode="c" glyph-name="c" horiz-adv-x="417" d="M379 436Q358 443 343 447T315 453T290 457T261 458Q213 458 173 441T103 391T58 315T42 218Q42 167 58 125T102 54T171 8T261 -9Q278 -9 291 -8T319 -5T349 2T387 14V64Q367 56 352 51T323 42T296 38T266
36Q186 36 140 86T93 223Q93 265 105 300T140 360T193 399T262 413Q277 413 289 412T315 407T343 398T379 383V436Z" />
<glyph unicode="d" glyph-name="d" horiz-adv-x="510" d="M449 682H401V422Q379 433 363 440T331 451T301 456T268 458Q219 458 178 441T106 392T58 318T41 225Q41 175 58 133T106 59T178 9T269 -9Q289 -9 305 -7T336 -1T366 12T401 35V0H449V682ZM401 79Q383
66 369 58T341 45T313 38T280 36Q240 36 206 50T147 90T108 151T94 228Q94 268 107 302T143 361T199 399T270 413Q288 413 304 411T335 404T366 390T401 369V79Z" />
<glyph unicode="e" glyph-name="e" horiz-adv-x="479" d="M445 242Q444 267 443 278T438 303Q430 338 413 366T370 415T314 447T246 458Q201 458 164 441T99 394T56 321T40 230Q40 178 56 134T103 59T174 9T264 -9Q359 -9 437 51V105Q424 93 413 86Q348 36 269
36Q231 36 199 50T143 89T106 150T92 226Q92 229 92 233T93 242H445ZM98 280Q109 340 149 377T247 415Q303 415 339 381T388 280H98Z" />
<glyph unicode="f" glyph-name="f" horiz-adv-x="240" d="M332 672Q304 683 288 687T250 691Q206 691 170 670T114 611Q94 570 94 505V449H11V409H94V0H142V409H229V449H142V506Q142 643 252 643Q271 643 287 640T332 627V672Z" />
<glyph unicode="g" glyph-name="g" horiz-adv-x="427" d="M417 449H259Q233 449 215 448T182 445T155 438T129 426Q92 408 71 371T49 288Q49 248 67 214Q81 185 102 170T166 140V138Q139 129 122 121T94 105T80 88T76 65Q76 18 149 1V-1Q86 -11 52 -39T18 -110Q18
-166 71 -198T215 -230Q310 -230 363 -196T416 -100Q416 -69 401 -44T360 -4Q347 3 337 7T312 14T279 18T229 21Q170 23 146 34T121 68Q121 103 191 122Q220 129 239 134T267 142Q299 153 328 177Q351 197 364 226T377 287Q377 322 363 350T315 409H417V449ZM330
290Q330 265 321 243T295 205T258 180T211 170Q186 170 165 179T127 205T101 244T91 291Q91 315 100 336T126 374T163 399T210 408Q235 408 256 399T294 373T320 336T330 290ZM371 -103Q371 -143 330 -166T218 -190Q143 -190 103 -169T63 -108Q63 -65 109 -44Q133
-33 158 -29T226 -24Q301 -24 336 -43T371 -103Z" />
<glyph unicode="h" glyph-name="h" horiz-adv-x="490" d="M110 682H63V0H110V310Q115 321 119 328T126 342Q146 374 180 392T252 411Q288 411 316 395T359 348Q365 337 368 327T374 303T377 274T378 236V0H427V232Q427 266 426 288T422 325T414 354T401 382Q381
418 344 438T260 458Q210 458 176 437T112 367H110V682Z" />
<glyph unicode="i" glyph-name="i" horiz-adv-x="188" d="M117 449H70V0H117V449ZM117 682H70V600H117V682Z" />
<glyph unicode="j" glyph-name="j" horiz-adv-x="188" d="M116 449H68V-15Q68 -44 68 -62T66 -93T63 -115T56 -134Q45 -160 25 -173T-30 -190L-16 -230Q9 -228 22 -224T53 -209Q88 -186 102 -143T116 -18V449ZM116 682H68V600H116V682Z" />
<glyph unicode="k" glyph-name="k" horiz-adv-x="427" d="M107 682H59V0H107V682ZM425 449H362L114 236L397 0H466L181 236L425 449Z" />
<glyph unicode="l" glyph-name="l" horiz-adv-x="188" d="M118 682H70V0H118V682Z" />
<glyph unicode="m" glyph-name="m" horiz-adv-x="771" d="M107 449H60V0H107V315Q139 367 170 389T242 412Q271 412 295 400T335 364Q350 342 355 314T361 230V0H409V306Q431 354 468 383T547 412Q573 412 598 398Q616 388 628 375T648 342T659 297T663 237V0H711V241Q711
272 710 293T706 331T697 360T682 389Q662 421 629 439T555 458Q506 458 469 433T398 350Q390 372 384 382T369 405Q348 431 318 444T253 458Q207 458 174 438T109 370H107V449Z" />
<glyph unicode="n" glyph-name="n" horiz-adv-x="490" d="M110 449H62V0H110V315Q135 363 170 387T251 412Q281 412 307 399T351 361Q366 340 372 312T379 239V0H427V243Q427 299 419 333T391 395Q370 424 335 441T258 458Q210 458 177 438T112 371H110V449Z" />
<glyph unicode="o" glyph-name="o" horiz-adv-x="542" d="M499 223Q499 274 482 317T435 392T362 440T270 458Q220 458 178 441T106 393T59 320T42 226Q42 175 59 132T106 58T177 9T268 -9Q318 -9 360 8T433 57T481 130T499 223ZM448 226Q448 184 435 149T398
89T341 49T269 35Q230 35 198 49T143 88T107 148T94 225Q94 266 107 300T143 360T198 399T269 413Q307 413 340 399T397 360T434 301T448 226Z" />
<glyph unicode="p" glyph-name="p" horiz-adv-x="510" d="M111 449H63V-230H111V25Q133 14 149 8T180 -2T210 -7T244 -9Q292 -9 333 9T404 58T451 133T468 226Q468 276 452 318T405 392T335 440T246 458Q226 458 211 457T180 452T149 441T111 424V449ZM111 378Q130
388 145 394T173 405T199 410T230 412Q270 412 304 398T363 359T401 299T415 222Q415 180 402 146T366 88T309 50T236 36Q217 36 203 37T174 43T145 54T111 72V378Z" />
<glyph unicode="q" glyph-name="q" horiz-adv-x="510" d="M447 449H399V418Q376 430 360 438T328 450T296 456T260 458Q212 458 171 440T101 389T54 313T37 216Q37 166 53 125T97 54T165 8T253 -9Q274 -9 290 -8T322 -3T356 8T399 26V-230H447V449ZM399 74Q378
62 362 55T330 43T298 37T262 35Q223 35 191 48T137 84T102 140T89 213Q89 256 102 292T140 356T197 398T269 413Q288 413 303 411T332 405T363 392T399 371V74Z" />
<glyph unicode="r" glyph-name="r" horiz-adv-x="333" d="M373 405Q340 434 317 446T271 458Q195 458 113 331H111V449H63V0H111V282Q149 344 185 376T255 409Q274 409 293 399T345 360L373 405Z" />
<glyph unicode="s" glyph-name="s" horiz-adv-x="354" d="M309 420Q275 440 247 449T189 458Q159 458 133 449T87 423T56 384T44 335Q44 310 55 287T85 248Q107 229 136 219Q143 216 154 212T183 201Q231 182 252 161T274 111Q274 78 249 57T181 36Q149 36 117
46T41 79V32Q108 -9 176 -9Q207 -9 234 0T280 26T311 66T322 115Q322 137 313 158Q306 174 297 186T275 209T242 229T196 248Q137 269 113 289T89 338Q89 370 117 392T186 414Q216 414 243 404T309 368V420Z" />
<glyph unicode="t" glyph-name="t" horiz-adv-x="302" d="M150 598H135L102 556V449H-19V409H102V135V93Q102 68 112 45Q123 21 149 6T206 -9Q250 -9 299 14V60Q270 47 254 43T218 39Q198 39 185 43T164 57T153 86T150 133V409H276V449H150V598Z" />
<glyph unicode="u" glyph-name="u" horiz-adv-x="490" d="M423 449H375V135Q371 127 368 120T362 108Q342 74 306 54T227 33Q192 33 165 47T124 88Q113 107 110 129T106 196V449H58V196Q58 147 64 118T86 62Q106 29 142 10T222 -9Q267 -9 305 12Q325 23 339 35T373
74H375V0H423V449Z" />
<glyph unicode="v" glyph-name="v" horiz-adv-x="427" d="M427 449H380L218 71L49 449H0L204 -9H234L427 449Z" />
<glyph unicode="w" glyph-name="w" horiz-adv-x="708" d="M708 449H660L504 83L367 449H341L200 83L47 449H0L192 -9H214L353 356L491 -9H514L708 449Z" />
<glyph unicode="x" glyph-name="x" horiz-adv-x="479" d="M467 449H411L240 263L68 449H6L211 230L6 0H60L240 198L421 0H482L270 230L467 449Z" />
<glyph unicode="y" glyph-name="y" horiz-adv-x="417" d="M423 449H374L219 135L55 449H6L195 87L38 -230H87L423 449Z" />
<glyph unicode="z" glyph-name="z" horiz-adv-x="396" d="M385 449H29V403H307L10 15V0H385V45H90L385 431V449Z" />
<glyph unicode="{" glyph-name="braceleft" horiz-adv-x="333" d="M286 682H271Q248 682 233 678T201 663Q170 643 157 609T143 517V414Q143 360 135 331T106 280Q94 268 83 264T49 258V194Q72 193 85 189T110 171Q129 150 136 118T143 25V-58Q143 -92 146 -117T156
-160T174 -192T203 -215Q218 -224 233 -227T272 -231Q281 -231 286 -230V-176Q260 -175 251 -174T232 -167Q221 -163 215 -155T205 -132T200 -91T198 -27V-9V7Q198 42 197 65T193 106T185 137T170 168Q159 188 145 200T101 226Q115 233 125 238T142 250T156 265T169
284Q178 300 184 314T193 346T197 390T198 454Q198 485 198 507T200 545T203 572T209 592Q217 612 232 619T286 627V682Z" />
<glyph unicode="|" glyph-name="bar" horiz-adv-x="496" d="M226 813V-17H269V813H226Z" />
<glyph unicode="}" glyph-name="braceright" horiz-adv-x="333" d="M47 -230Q52 -231 63 -231Q85 -231 100 -227T132 -211Q163 -191 176 -157T190 -65V38Q190 65 192 85T198 120T209 148T227 172Q239 184 250 188T284 194V258Q261 259 248 263T223 281Q205 301
198 332T190 421V514Q190 603 160 642T61 682H47V627Q60 627 68 627T81 625T91 623T101 619Q111 614 118 607T128 584T133 543T135 479V461V445Q135 410 136 387T140 346T148 314T163 284Q174 264 188 252T232 226Q218 219 208 214T191 201T177 186T164 167Q155
151 149 137T140 105T136 62T135 -3Q135 -65 133 -94T124 -140Q117 -160 101 -167T47 -175V-230Z" />
<glyph unicode="~" glyph-name="asciitilde" horiz-adv-x="660" d="M591 392Q549 357 517 341T455 325Q434 325 406 334T333 365Q307 377 290 384T258 396T232 402T206 404Q175 404 143 391T69 346V291Q107 323 143 340T208 357Q228 357 255 348T325 319Q353 306
372 299T405 287T430 281T455 279Q484 279 510 288T574 323L591 335V392Z" />
</font>
</defs>
</svg>
