<?xml version="1.0" standalone="no"?> <!DOCTYPE svg PUBLIC "-//W3C//DTD SVG 1.0//EN" "http://www.w3.org/TR/2001/REC-SVG-20010904/DTD/svg10.dtd" > <svg xmlns="http://www.w3.org/2000/svg" width="100%" height="100%">
<defs >
<font id="GSC400" horiz-adv-x="623" ><font-face
    font-family="Gill Sans MT Condensed"
    units-per-em="2048"
    panose-1="2 11 5 6 2 1 4 2 2 3"
    ascent="1913"
    descent="-553"
    alphabetic="0" />
<missing-glyph horiz-adv-x="2048" d="M256 0V1536H1792V0H256ZM384 128H1664V1408H384V128Z" />
<glyph unicode=" " glyph-name="space" horiz-adv-x="682" />
<glyph unicode="!" glyph-name="exclam" horiz-adv-x="362" d="M78 1133Q78 1380 182 1380Q287 1380 287 1133Q287 933 250 662T182 391Q153 391 116 662T78 1133ZM182 -18Q136 -18 103 15T70 94Q70 140 103 172T182 205Q228 205 260 173T293 94Q293 48 261 15T182 -18Z" />
<glyph unicode="&quot;" glyph-name="quotedbl" horiz-adv-x="727" d="M428 1466H633V1221L586 946H475L428 1221V1466ZM96 1466H301V1221L254 946H143L96 1221V1466Z" />
<glyph unicode="#" glyph-name="numbersign" horiz-adv-x="1368" d="M141 1059H442L530 1491H680L592 1059H907L995 1491H1145L1057 1059H1227V909H1026L956 557H1227V408H926L838 -25H688L776 408H461L373 -25H223L311 408H141V557H342L412 909H141V1059ZM561
909L492 557H807L877 909H561Z" />
<glyph unicode="$" glyph-name="dollar" horiz-adv-x="768" d="M53 59V236Q198 147 326 147V629Q186 737 121 830T55 1030Q55 1139 127 1225T326 1331V1397H444V1341Q553 1341 682 1276V1106Q552 1182 444 1184V772Q713 572 713 336Q713 214 642 121T444 -6V-211H326V-18Q163
-3 53 59ZM326 868V1169Q219 1127 219 1036Q219 951 326 868ZM444 532V170Q553 223 553 330Q553 445 444 532Z" />
<glyph unicode="%" glyph-name="percent" horiz-adv-x="1237" d="M201 -61L901 1386H1028L330 -61H201ZM223 657Q35 657 35 1020Q35 1382 223 1382Q412 1382 412 1022Q412 657 223 657ZM223 768Q279 768 279 1012Q279 1168 267 1221T223 1274Q191 1274 180 1212T168
1010Q168 768 223 768ZM1014 -14Q825 -14 825 348Q825 711 1014 711Q1202 711 1202 350Q1202 -14 1014 -14ZM1014 96Q1069 96 1069 340Q1069 496 1057 549T1014 602Q981 602 970 540T958 338Q958 96 1014 96Z" />
<glyph unicode="&amp;" glyph-name="ampersand" horiz-adv-x="854" d="M633 -18L582 102Q477 -18 360 -18Q234 -18 145 98T55 383Q55 626 260 807Q184 975 184 1090Q184 1210 258 1296T436 1382Q534 1382 602 1309T670 1128Q670 954 469 778L602 465H606Q638 595
649 688H805Q786 473 692 268L823 -18H633ZM399 924Q460 984 489 1027T518 1130Q518 1180 494 1212T434 1245Q396 1245 370 1209T344 1120Q344 1032 399 924ZM510 264L336 649Q280 581 256 529T231 397Q231 293 272 226T375 158Q447 158 510 264Z" />
<glyph unicode="&apos;" glyph-name="quotesingle" horiz-adv-x="391" d="M94 1466H299V1221L252 946H141L94 1221V1466Z" />
<glyph unicode="(" glyph-name="parenleft" horiz-adv-x="469" d="M453 1380Q347 1207 301 998T254 438Q254 88 300 -121T453 -504H360Q212 -269 148 -60T84 438Q84 728 148 936T360 1380H453Z" />
<glyph unicode=")" glyph-name="parenright" horiz-adv-x="469" d="M16 -504Q122 -330 168 -121T215 438Q215 788 169 997T16 1380H109Q257 1145 321 937T385 438Q385 149 321 -60T109 -504H16Z" />
<glyph unicode="*" glyph-name="asterisk" horiz-adv-x="725" d="M399 1038Q503 976 539 942T575 872Q575 847 553 826T504 805Q420 805 383 1024Q369 1019 364 1019Q358 1019 344 1024Q303 805 223 805Q194 805 173 825T152 872Q152 934 326 1038Q311 1055 313
1071Q277 1065 217 1065Q63 1065 63 1145Q63 1171 82 1190T129 1210Q193 1210 322 1096Q330 1114 350 1118Q295 1246 295 1303Q295 1338 314 1360T362 1382Q392 1382 411 1360T430 1305Q430 1246 375 1118Q396 1114 406 1096Q531 1210 596 1210Q624 1210 644 1191T664
1145Q664 1065 508 1065Q448 1065 412 1071Q412 1051 399 1038Z" />
<glyph unicode="+" glyph-name="plus" horiz-adv-x="1366" d="M199 807H598V1206H768V807H1167V637H768V238H598V637H199V807Z" />
<glyph unicode="," glyph-name="comma" horiz-adv-x="362" d="M76 -266L74 -248Q142 -147 131 -16Q45 5 45 92Q45 142 77 175T156 209Q214 209 250 159T287 27Q287 -176 76 -266Z" />
<glyph unicode="-" glyph-name="hyphen" horiz-adv-x="492" d="M59 373V545H430V373H59Z" />
<glyph unicode="." glyph-name="period" horiz-adv-x="362" d="M70 94Q70 140 103 172T182 205Q228 205 260 173T293 94Q293 48 261 15T182 -18Q136 -18 103 15T70 94Z" />
<glyph unicode="/" glyph-name="slash" horiz-adv-x="575" d="M20 -18L410 1368H555L166 -18H20Z" />
<glyph unicode="0" glyph-name="zero" horiz-adv-x="748" d="M371 -25Q218 -25 147 148T76 678Q76 1382 371 1382Q523 1382 596 1214T670 678Q670 326 600 151T371 -25ZM489 678Q489 995 462 1109T373 1223Q314 1223 285 1123T256 678Q256 137 373 137Q489 137 489 678Z" />
<glyph unicode="1" glyph-name="one" horiz-adv-x="748" d="M285 0V1368H461V0H285Z" />
<glyph unicode="2" glyph-name="two" horiz-adv-x="748" d="M70 0V27Q430 623 430 967Q430 1071 382 1133T252 1196Q195 1196 98 1151V1333Q204 1382 297 1382Q442 1382 526 1280T610 999Q610 845 544 664T319 174H639V0H70Z" />
<glyph unicode="3" glyph-name="three" horiz-adv-x="748" d="M94 16V190Q179 147 246 147Q327 147 376 214T426 395Q426 611 248 639V813Q410 838 410 1014Q410 1106 366 1160T246 1214Q190 1214 125 1176V1348Q197 1382 283 1382Q414 1382 502 1285T590 1042Q590
835 383 731Q606 649 606 379Q606 211 508 93T270 -25Q198 -25 94 16Z" />
<glyph unicode="4" glyph-name="four" horiz-adv-x="748" d="M414 0V375H55V532L426 1382H590V498H666V375H590V0H414ZM414 498V1047H410L176 498H414Z" />
<glyph unicode="5" glyph-name="five" horiz-adv-x="748" d="M106 12V178Q188 147 244 147Q340 147 396 217T453 408Q453 525 393 591T227 657Q180 657 156 649V1368H590V1208H328V803Q633 760 633 414Q633 226 531 101T276 -25Q191 -25 106 12Z" />
<glyph unicode="6" glyph-name="six" horiz-adv-x="748" d="M602 1368L340 829Q382 840 414 840Q528 840 599 725T670 422Q670 230 587 103T381 -25Q262 -25 181 90T100 424Q100 700 225 956L426 1368H602ZM383 668Q281 668 281 408Q281 147 385 147Q489 147 489
436Q489 668 383 668Z" />
<glyph unicode="7" glyph-name="seven" horiz-adv-x="748" d="M201 12L444 1208H94V1368H653L367 -25L201 12Z" />
<glyph unicode="8" glyph-name="eight" horiz-adv-x="748" d="M510 711Q668 611 668 385Q668 199 587 87T373 -25Q241 -25 161 85T80 379Q80 614 238 711Q96 817 96 1012Q96 1186 182 1284T373 1382Q482 1382 566 1282T651 1012Q651 817 510 711ZM276 987Q276
893 302 839T371 784Q414 784 439 838T465 985Q465 1210 371 1210Q276 1210 276 987ZM260 385Q260 278 291 213T373 147Q424 147 455 212T487 385Q487 612 373 612Q260 612 260 385Z" />
<glyph unicode="9" glyph-name="nine" horiz-adv-x="748" d="M178 0L432 528Q387 518 358 518Q243 518 172 633T100 938Q100 1129 184 1255T389 1382Q514 1382 592 1261T670 932Q670 662 547 406L352 0H178ZM387 690Q489 690 489 950Q489 1210 387 1210Q281 1210
281 924Q281 690 387 690Z" />
<glyph unicode=":" glyph-name="colon" horiz-adv-x="362" d="M70 821Q70 867 103 899T182 932Q228 932 260 900T293 821Q293 775 261 742T182 709Q136 709 103 742T70 821ZM70 94Q70 140 103 172T182 205Q228 205 260 173T293 94Q293 48 261 15T182 -18Q136 -18
103 15T70 94Z" />
<glyph unicode=";" glyph-name="semicolon" horiz-adv-x="362" d="M70 821Q70 867 103 899T182 932Q228 932 260 900T293 821Q293 775 261 742T182 709Q136 709 103 742T70 821ZM76 -266L74 -248Q142 -147 131 -16Q45 5 45 92Q45 142 77 175T156 209Q214 209 250
159T287 27Q287 -176 76 -266Z" />
<glyph unicode="&lt;" glyph-name="less" horiz-adv-x="1366" d="M199 641V809L1169 1219V1038L399 725L1169 412V231L199 641Z" />
<glyph unicode="=" glyph-name="equal" horiz-adv-x="1366" d="M199 1030H1167V860H199V1030ZM199 588H1167V418H199V588Z" />
<glyph unicode="&gt;" glyph-name="greater" horiz-adv-x="1366" d="M1169 641L199 231V412L969 725L199 1038V1219L1169 809V641Z" />
<glyph unicode="?" glyph-name="question" horiz-adv-x="512" d="M66 1184L193 1380Q327 1370 403 1290T479 1087Q479 1031 457 962T342 739T224 503T201 350Q94 401 94 530Q94 588 114 656T212 862T291 1071Q291 1123 254 1160T166 1198Q129 1198 80 1171L66
1184ZM231 -18Q186 -18 153 15T119 94Q119 140 152 172T231 205Q277 205 309 173T342 94Q342 48 310 15T231 -18Z" />
<glyph unicode="@" glyph-name="at" horiz-adv-x="2079" d="M1417 1012L1292 221Q1289 199 1289 185Q1289 143 1327 143Q1414 143 1521 275T1628 637Q1628 898 1477 1052T1071 1206Q778 1206 593 1004T408 477Q408 163 587 -29T1057 -221Q1341 -221 1575 -35H1800Q1674
-197 1471 -293T1061 -389Q710 -389 473 -141T236 477Q236 843 456 1109T1071 1376Q1408 1376 1604 1166T1800 637Q1800 341 1620 158T1262 -25Q1140 -25 1106 94Q987 -25 866 -25Q723 -25 632 94T541 406Q541 653 665 850T969 1047Q1105 1047 1204 899L1223 1012H1417ZM1004
874Q898 874 830 722T762 350Q762 247 798 190T899 133Q1008 133 1071 295T1135 688Q1135 874 1004 874Z" />
<glyph unicode="A" glyph-name="A" horiz-adv-x="725" d="M14 0L272 1376H455L711 0H541L492 303H238L184 0H14ZM264 467H461L365 1040H360L264 467Z" />
<glyph unicode="B" glyph-name="B" horiz-adv-x="788" d="M121 0V1368H330Q485 1368 587 1268T690 1030Q690 845 512 735Q721 637 721 395Q721 220 608 110T287 0H121ZM297 788H313Q405 788 459 846T514 1001Q514 1098 462 1151T313 1204H297V788ZM297 164H328Q430
164 487 223T545 389Q545 494 489 559T328 625H297V164Z" />
<glyph unicode="C" glyph-name="C" horiz-adv-x="682" d="M643 244V59Q544 -18 434 -18Q258 -18 162 162T66 676Q66 1010 162 1198T438 1386Q524 1386 627 1315V1137Q539 1223 451 1223Q345 1223 298 1099T250 684Q250 397 298 271T457 145Q533 145 643 244Z" />
<glyph unicode="D" glyph-name="D" horiz-adv-x="854" d="M113 0V1368H307Q776 1368 776 686Q776 345 660 173T332 0H113ZM289 164H315Q471 164 535 283T600 678Q600 965 539 1084T319 1204H289V164Z" />
<glyph unicode="E" glyph-name="E" horiz-adv-x="745" d="M119 0V1368H606V1204H295V795H580V631H295V164H623V0H119Z" />
<glyph unicode="F" glyph-name="F" horiz-adv-x="666" d="M119 0V1368H545V1204H295V797H528V633H295V0H119Z" />
<glyph unicode="G" glyph-name="G" horiz-adv-x="854" d="M762 735V63Q638 -18 520 -18Q312 -18 191 167T70 682Q70 1007 187 1196T500 1386Q618 1386 762 1288V1100Q615 1233 508 1233Q246 1233 246 682Q246 145 524 145Q547 145 586 152V571H465V735H762Z" />
<glyph unicode="H" glyph-name="H" horiz-adv-x="854" d="M121 0V1368H297V766H557V1368H733V0H557V602H297V0H121Z" />
<glyph unicode="I" glyph-name="I" horiz-adv-x="362" d="M182 1202Q144 1202 117 1229T90 1294Q90 1333 117 1359T182 1386Q220 1386 247 1360T274 1294Q274 1256 247 1229T182 1202ZM102 0V907H262V0H102Z" />
<glyph unicode="J" glyph-name="J" horiz-adv-x="426" d="M-49 -406L-68 -246Q-18 -250 10 -250Q85 -250 107 -215T129 -76V1368H305V-47Q305 -413 34 -413Q-5 -413 -49 -406Z" />
<glyph unicode="K" glyph-name="K" horiz-adv-x="725" d="M123 0V1368H299V0H123ZM549 0L305 694L498 1368H678L463 717L731 0H549Z" />
<glyph unicode="L" glyph-name="L" horiz-adv-x="641" d="M121 0V1368H297V164H635V0H121Z" />
<glyph unicode="M" glyph-name="M" horiz-adv-x="938" d="M469 866L672 1368H823V0H651L662 989L657 993L485 543H453L281 993L276 989L287 0H115V1368H266L469 866Z" />
<glyph unicode="N" glyph-name="N" horiz-adv-x="854" d="M121 0V1368H264L567 524H571V1368H733V0H590L287 852H283V0H121Z" />
<glyph unicode="O" glyph-name="O" horiz-adv-x="874" d="M438 -18Q276 -18 174 169T72 684Q72 993 168 1189T438 1386Q606 1386 705 1190T805 684Q805 354 700 168T438 -18ZM436 1223Q349 1223 303 1080T256 684Q256 423 304 284T440 145Q524 145 572 287T621
684Q621 943 572 1083T436 1223Z" />
<glyph unicode="P" glyph-name="P" horiz-adv-x="768" d="M127 0V1368H313Q502 1368 613 1267T725 989Q725 808 622 704T340 600H303V0H127ZM303 764H334Q549 764 549 999Q549 1210 303 1204V764Z" />
<glyph unicode="Q" glyph-name="Q" horiz-adv-x="874" d="M834 -96L719 -272Q531 -252 362 -6Q72 114 72 684Q72 995 170 1190T440 1386Q600 1386 702 1196T805 684Q805 174 561 18Q660 -109 731 -109Q768 -109 803 -76L834 -96ZM436 1223Q349 1223 303 1079T256
684Q256 423 304 284T440 145Q526 145 573 287T621 684Q621 943 572 1083T436 1223Z" />
<glyph unicode="R" glyph-name="R" horiz-adv-x="748" d="M121 0V1368H268Q444 1368 536 1265T629 989Q629 794 487 696Q597 618 674 281L737 0H553L500 236Q443 484 401 551T297 612V0H121ZM297 776H305Q453 776 453 983Q453 1203 297 1204V776Z" />
<glyph unicode="S" glyph-name="S" horiz-adv-x="575" d="M66 35V217Q145 141 219 141Q274 141 313 180T352 274Q352 321 330 388T212 635T86 909T57 1073Q57 1211 135 1298T336 1386Q405 1386 483 1350V1184Q411 1227 360 1227Q227 1227 227 1096Q227 1048 249
981T368 735T493 463T522 297Q522 157 444 70T240 -18Q150 -18 66 35Z" />
<glyph unicode="T" glyph-name="T" horiz-adv-x="641" d="M231 0V1204H20V1368H618V1204H408V0H231Z" />
<glyph unicode="U" glyph-name="U" horiz-adv-x="831" d="M111 1368H287V340Q287 145 416 145Q473 145 509 194T545 332V1368H721V352Q721 172 630 77T416 -18Q285 -18 198 81T111 338V1368Z" />
<glyph unicode="V" glyph-name="V" horiz-adv-x="662" d="M270 -18L18 1368H203L332 446L459 1368H643L391 -18H270Z" />
<glyph unicode="W" glyph-name="W" horiz-adv-x="1237" d="M313 -18L20 1368H205L367 449H371L555 1368H682L856 428H860L1032 1368H1217L924 -18H803L618 897H614L434 -18H313Z" />
<glyph unicode="X" glyph-name="X" horiz-adv-x="725" d="M16 0L256 727L49 1368H238L358 915H362L485 1368H674L467 727L709 0H520L362 508H358L205 0H16Z" />
<glyph unicode="Y" glyph-name="Y" horiz-adv-x="641" d="M229 0V625L14 1368H195L313 831H317L442 1368H625L406 625V0H229Z" />
<glyph unicode="Z" glyph-name="Z" horiz-adv-x="598" d="M33 0L348 1204H70V1368H565L250 164H565V0H33Z" />
<glyph unicode="[" glyph-name="bracketleft" horiz-adv-x="532" d="M164 -483V1368H518V1217H324V-332H518V-483H164Z" />
<glyph unicode="\" glyph-name="backslash" horiz-adv-x="575" d="M555 -18H410L20 1368H166L555 -18Z" />
<glyph unicode="]" glyph-name="bracketright" horiz-adv-x="532" d="M369 -483H14V-332H209V1217H14V1368H369V-483Z" />
<glyph unicode="^" glyph-name="asciicircum" horiz-adv-x="961" d="M53 690L408 1491H553L905 690H721L479 1288L240 690H53Z" />
<glyph unicode="_" glyph-name="underscore" horiz-adv-x="1024" d="M-12 -154H1036V-256H-12V-154Z" />
<glyph unicode="`" glyph-name="grave" horiz-adv-x="682" d="M410 1055H317L172 1354H367L410 1055Z" />
<glyph unicode="a" glyph-name="a" horiz-adv-x="682" d="M659 168V47Q584 -20 535 -20Q446 -20 418 94Q330 -25 244 -25Q173 -25 120 43T66 205Q66 312 141 387T412 575V662Q412 780 317 780Q220 780 88 631V815Q210 932 330 932Q430 932 500 866T571 688V176Q571
123 596 123Q611 123 659 168ZM412 231V465Q223 351 223 229Q223 184 245 156T301 127Q343 127 377 172T412 231Z" />
<glyph unicode="b" glyph-name="b" horiz-adv-x="725" d="M94 0V1368H254V860H258Q301 932 397 932Q506 932 580 812T655 463Q655 236 581 111T393 -14Q312 -14 254 53V0H94ZM254 696V225Q296 137 362 137Q492 137 492 465Q492 616 455 698T352 780Q311 780 283
743T254 696Z" />
<glyph unicode="c" glyph-name="c" horiz-adv-x="575" d="M555 178V25Q478 -25 397 -25Q258 -25 165 108T72 446Q72 660 164 796T397 932Q464 932 541 899V735Q469 780 422 780Q337 780 287 692T236 451Q236 302 291 215T438 127Q492 127 555 178Z" />
<glyph unicode="d" glyph-name="d" horiz-adv-x="725" d="M631 0H471V70H467Q410 -14 322 -14Q215 -14 141 112T66 451Q66 665 140 798T330 932Q411 932 471 858V1368H631V0ZM471 231V690Q439 780 367 780Q303 780 266 693T229 446Q229 145 358 145Q406 145 438
183T471 231Z" />
<glyph unicode="e" glyph-name="e" horiz-adv-x="641" d="M547 213V55Q462 -25 360 -25Q222 -25 146 99T70 455Q70 681 136 806T322 932Q570 932 565 418H229Q229 123 391 123Q479 123 547 213ZM227 537H406Q406 793 313 793Q227 793 227 537Z" />
<glyph unicode="f" glyph-name="f" horiz-adv-x="385" d="M117 0V768H45V907H117V1051Q117 1386 436 1386V1253Q352 1253 314 1203T276 1042V907H365V768H276V0H117Z" />
<glyph unicode="g" glyph-name="g" horiz-adv-x="682" d="M659 768H539Q590 684 590 547Q590 253 336 212Q290 204 271 193T252 145Q252 118 271 99T419 53T603 -47T657 -221Q657 -345 570 -423T342 -502Q213 -502 127 -430T41 -250Q41 -94 197 -27Q94 19 94 106Q94
202 221 252Q82 348 82 563Q82 720 153 813T350 907H659V768ZM338 786Q288 786 258 727T227 563Q227 456 256 396T338 336Q387 336 415 393T444 553Q444 661 415 723T338 786ZM338 -86Q271 -86 229 -126T186 -229Q186 -291 230 -329T346 -367Q417 -367 464 -327T512
-229Q512 -170 461 -128T338 -86Z" />
<glyph unicode="h" glyph-name="h" horiz-adv-x="725" d="M104 0V1368H264V817H268Q333 932 436 932Q520 932 577 865T635 676V0H475V657Q475 788 391 788Q343 788 304 740T264 682V0H104Z" />
<glyph unicode="i" glyph-name="i" horiz-adv-x="362" d="M182 1202Q144 1202 117 1229T90 1294Q90 1333 117 1359T182 1386Q220 1386 247 1360T274 1294Q274 1256 247 1229T182 1202ZM102 0V907H262V0H102Z" />
<glyph unicode="j" glyph-name="j" horiz-adv-x="342" d="M164 1202Q126 1202 99 1229T72 1294Q72 1333 99 1359T164 1386Q202 1386 229 1360T256 1294Q256 1256 229 1229T164 1202ZM-10 -489V-336Q45 -327 67 -286T90 -133V907H250V-66Q250 -227 232 -297T153
-423T-10 -489Z" />
<glyph unicode="k" glyph-name="k" horiz-adv-x="705" d="M98 0V1368H258V0H98ZM522 0L274 467L502 907H670L428 477L700 0H522Z" />
<glyph unicode="l" glyph-name="l" horiz-adv-x="342" d="M90 0V1368H250V0H90Z" />
<glyph unicode="m" glyph-name="m" horiz-adv-x="1087" d="M1004 0H844V645Q844 780 758 780Q692 780 631 674V0H471V643Q471 780 383 780Q323 780 258 672V0H98V907H258V809H262Q328 922 430 922Q547 922 616 786Q664 856 702 889T803 922Q892 922 948 853T1004 655V0Z" />
<glyph unicode="n" glyph-name="n" horiz-adv-x="725" d="M100 0V907H260V809H264Q331 922 432 922Q522 922 576 851T631 653V0H471V649Q471 780 385 780Q337 780 299 731T260 672V0H100Z" />
<glyph unicode="o" glyph-name="o" horiz-adv-x="705" d="M352 -25Q221 -25 145 102T68 453Q68 676 144 804T352 932Q483 932 560 804T637 453Q637 230 560 103T352 -25ZM350 780Q231 780 231 453Q231 127 354 127Q473 127 473 453Q473 780 350 780Z" />
<glyph unicode="p" glyph-name="p" horiz-adv-x="725" d="M100 -489V907H260V842H264Q316 922 401 922Q511 922 586 785T662 440Q662 234 589 105T401 -25Q323 -25 264 55H260V-489H100ZM260 690V209Q315 127 371 127Q498 127 498 442Q498 770 356 770Q316 770
288 736T260 690Z" />
<glyph unicode="q" glyph-name="q" horiz-adv-x="725" d="M471 -489V53H467Q416 -25 328 -25Q215 -25 141 104T66 451Q66 668 138 795T326 922Q415 922 467 840H471V907H631V-489H471ZM471 217V678Q429 770 360 770Q229 770 229 442Q229 293 267 210T371 127Q415
127 443 167T471 217Z" />
<glyph unicode="r" glyph-name="r" horiz-adv-x="512" d="M104 0V907H264V662H268Q316 824 347 873T436 922Q480 922 518 895L506 731Q473 754 436 754Q361 754 313 619T264 360V0H104Z" />
<glyph unicode="s" glyph-name="s" horiz-adv-x="512" d="M57 49V225Q146 127 215 127Q249 127 272 149T295 205Q295 267 205 402T91 601T68 719Q68 811 123 871T264 932Q341 932 416 874V723Q338 786 279 786Q215 786 215 719Q215 662 308 532T427 334T453 209Q453
108 391 42T236 -25Q148 -25 57 49Z" />
<glyph unicode="t" glyph-name="t" horiz-adv-x="469" d="M446 152V10Q365 -25 305 -25Q137 -25 137 178V768H33V782Q147 921 283 1141H297V907H446V768H297V250Q297 178 310 153T360 127Q393 127 446 152Z" />
<glyph unicode="u" glyph-name="u" horiz-adv-x="725" d="M618 907V0H459V98H455Q391 -14 293 -14Q202 -14 145 55T88 246V907H248V258Q248 129 334 129Q384 129 421 174T459 236V907H618Z" />
<glyph unicode="v" glyph-name="v" horiz-adv-x="618" d="M287 -20L14 907H174L307 389H311L444 907H604L332 -20H287Z" />
<glyph unicode="w" glyph-name="w" horiz-adv-x="918" d="M258 -20L12 907H174L289 420H293L428 907H489L625 420H629L743 907H905L659 -20H614L461 524H457L303 -20H258Z" />
<glyph unicode="x" glyph-name="x" horiz-adv-x="662" d="M31 0L240 463L31 907H199L324 618L442 907H606L410 463L629 0H461L324 313L199 0H31Z" />
<glyph unicode="y" glyph-name="y" horiz-adv-x="641" d="M72 -500L256 160L16 907H182L330 434H334L465 907H625L231 -500H72Z" />
<glyph unicode="z" glyph-name="z" horiz-adv-x="575" d="M29 0L311 768H55V907H532L246 139H539V0H29Z" />
<glyph unicode="{" glyph-name="braceleft" horiz-adv-x="684" d="M59 360V524Q170 527 218 596T266 852V1006Q266 1220 333 1311T571 1403H639V1251H608Q500 1251 468 1212T436 1040V895Q436 683 388 586T225 442Q339 397 387 300T436 -10V-156Q436 -287 468
-327T608 -367H639V-518H571Q400 -518 333 -427T266 -121V33Q266 220 218 289T59 360Z" />
<glyph unicode="|" glyph-name="bar" horiz-adv-x="1079" d="M461 1368H621V-553H461V1368Z" />
<glyph unicode="}" glyph-name="braceright" horiz-adv-x="684" d="M627 524V360Q516 358 468 289T420 33V-121Q420 -335 353 -426T115 -518H47V-367H76Q185 -367 217 -326T250 -156V-10Q250 202 298 299T461 442Q347 488 299 585T250 895V1040Q250 1172 218 1211T78
1251H47V1403H115Q286 1403 353 1312T420 1006V852Q420 665 468 596T627 524Z" />
<glyph unicode="~" glyph-name="asciitilde" horiz-adv-x="1343" d="M1212 846V700Q1060 573 930 573Q829 573 662 654T424 735Q294 735 131 598V741Q291 866 424 866Q524 866 687 786T924 705Q1054 705 1212 846Z" />
</font>
</defs>
</svg>
