<?xml version="1.0" standalone="no"?> <!DOCTYPE svg PUBLIC "-//W3C//DTD SVG 1.0//EN" "http://www.w3.org/TR/2001/REC-SVG-20010904/DTD/svg10.dtd" > <svg xmlns="http://www.w3.org/2000/svg" width="100%" height="100%">
<defs >
<font id="GSC700" horiz-adv-x="893" ><font-face
    font-family="Gill Sans Std"
    units-per-em="2048"
    panose-1="2 11 8 6 2 1 4 2 2 3"
    ascent="1913"
    descent="-552"
    alphabetic="0" />
<missing-glyph horiz-adv-x="1024" d="M0 0V1434H1024V0H0ZM102 195L451 717L102 1239V195ZM164 102H860L512 625L164 102ZM164 1331L512 809L860 1331H164ZM573 717L922 195V1239L573 717Z" />
<glyph unicode=" " glyph-name="space" horiz-adv-x="681" />
<glyph unicode="!" glyph-name="exclam" horiz-adv-x="555" d="M113 1182Q113 1418 278 1418T444 1182Q444 1041 402 782T317 410H240Q197 523 155 782T113 1182ZM115 78T115 145T162 260T276 307T392 260T440 146T392 30T277 -18T162 30Z" />
<glyph unicode="&quot;" glyph-name="quotedbl" horiz-adv-x="970" d="M106 1219V1466H414V1219L360 946H160L106 1219ZM557 1219V1466H864V1219L811 946H610L557 1219Z" />
<glyph unicode="#" glyph-name="numbersign" horiz-adv-x="1366" d="M70 332V547H276L334 819H70V1034H379L459 1409H674L594 1034H920L999 1409H1214L1135 1034H1296V819H1090L1032 547H1296V332H987L907 -43H692L772 332H446L367 -43H152L231 332H70ZM492 547H817L874
819H549L492 547Z" />
<glyph unicode="$" glyph-name="dollar" horiz-adv-x="1044" d="M68 958Q68 1114 175 1221T453 1346V1417H598V1350Q774 1344 901 1286V1051Q735 1127 598 1128V795Q977 666 977 375Q977 221 869 111T598 -12V-236H453V-18Q252 -12 82 59V301Q279 205 453 203V545Q256
621 162 717T68 958ZM317 981Q317 895 453 846V1114Q317 1081 317 981ZM598 223Q717 262 717 350Q717 430 598 487V223Z" />
<glyph unicode="%" glyph-name="percent" horiz-adv-x="1515" d="M37 1047Q37 1225 109 1321T319 1417T530 1321T604 1047Q604 871 531 775T320 678T110 774T37 1047ZM248 1047Q248 924 264 875T319 825Q360 825 376 874T393 1047Q393 1172 377 1221T320 1270T264
1221T248 1047ZM264 -53L1049 1454H1245L469 -53H264ZM911 358Q911 536 984 632T1194 729T1405 633T1479 358Q1479 182 1405 86T1194 -10T984 86T911 358ZM1122 358Q1122 235 1138 186T1194 137Q1235 137 1251 186T1268 358Q1268 483 1252 532T1194 582T1138 533T1122
358Z" />
<glyph unicode="&amp;" glyph-name="ampersand" horiz-adv-x="1236" d="M84 373Q84 631 373 807Q291 977 291 1081Q291 1226 388 1321T635 1417Q778 1417 873 1328T969 1106Q969 918 737 762L858 563Q907 651 940 733H1204Q1130 522 1001 336L1204 0H870L801 117Q651
-18 477 -18Q309 -18 197 94T84 373ZM362 406Q362 343 408 295T516 246Q592 246 672 326L492 610Q420 553 391 507T362 406ZM547 1122Q547 1050 623 954Q746 1040 745 1114Q745 1153 715 1183T643 1214T575 1188T547 1122Z" />
<glyph unicode="&apos;" glyph-name="quotesingle" horiz-adv-x="487" d="M90 1219V1466H397V1219L344 946H143L90 1219Z" />
<glyph unicode="(" glyph-name="parenleft" horiz-adv-x="724" d="M117 225T117 471T211 944T504 1417H711Q561 1229 498 1013T434 471T497 -71T711 -475H504Q305 -229 211 -2Z" />
<glyph unicode=")" glyph-name="parenright" horiz-adv-x="724" d="M14 -475Q164 -287 227 -71T291 471T228 1013T14 1417H221Q420 1171 514 944T608 471T514 -2T221 -475H14Z" />
<glyph unicode="*" glyph-name="asterisk" horiz-adv-x="1024" d="M79 846Q79 871 109 874L444 946V983L137 1051Q82 1063 79 1084Q79 1085 79 1087Q79 1111 123 1190Q168 1268 192 1278T238 1255L461 1018L500 1038L395 1362Q385 1395 407 1406T512 1417Q598
1417 618 1406T629 1360L524 1038L561 1020L799 1266Q819 1291 838 1279T897 1198Q942 1118 945 1089Q945 1086 945 1084Q945 1059 915 1055L580 983V946L887 879Q942 867 945 845Q945 844 945 842Q945 818 901 739Q856 661 832 651T786 674L563 911L524 891L629
567Q639 534 617 523T512 512Q426 512 406 523T395 569L500 891L463 909L225 664Q205 639 186 651T127 731Q79 817 79 846Z" />
<glyph unicode="+" glyph-name="plus" horiz-adv-x="1366" d="M121 559V807H559V1245H807V807H1245V559H807V121H559V559H121Z" />
<glyph unicode="," glyph-name="comma" horiz-adv-x="555" d="M104 152Q104 220 151 266T266 313Q352 313 405 249T459 78Q459 -67 370 -166T113 -311V-260Q205 -180 219 -10Q104 35 104 152Z" />
<glyph unicode="-" glyph-name="hyphen" horiz-adv-x="704" d="M76 334V606H627V334H76Z" />
<glyph unicode="." glyph-name="period" horiz-adv-x="555" d="M115 78T115 145T163 260T278 307T393 260T440 146T393 30T279 -18T163 30Z" />
<glyph unicode="/" glyph-name="slash" horiz-adv-x="575" d="M12 -18L352 1399H563L221 -18H12Z" />
<glyph unicode="0" glyph-name="zero" horiz-adv-x="1067" d="M74 350T74 698T191 1232T537 1417Q766 1417 879 1224T993 699T880 175T532 -18Q309 -18 192 166ZM391 942T391 697T416 337T532 223Q616 223 646 329T676 698Q676 948 649 1062T532 1176Q442 1176 417 1059Z" />
<glyph unicode="1" glyph-name="one" horiz-adv-x="1067" d="M375 0V1399H692V0H375Z" />
<glyph unicode="2" glyph-name="two" horiz-adv-x="1067" d="M35 0V23Q80 64 203 241T441 636T557 952Q557 1042 501 1101T358 1161Q235 1161 76 1059V1313Q252 1417 438 1417Q618 1417 735 1310T852 1036Q852 895 772 719T500 276H938V0H35Z" />
<glyph unicode="3" glyph-name="three" horiz-adv-x="1067" d="M102 303Q262 223 377 223Q481 223 544 276T608 418T538 561Q476 609 375 609Q360 609 344 608V842Q353 842 361 841Q457 841 516 884Q579 930 580 1010Q580 1086 525 1131T381 1176Q270 1176 123
1102V1352Q313 1418 449 1417Q648 1417 772 1313T897 1040Q897 837 686 743Q926 647 926 399Q926 217 790 100T440 -18Q297 -18 102 53V303Z" />
<glyph unicode="4" glyph-name="four" horiz-adv-x="1067" d="M41 360V588L584 1417H866V578H989V360H866V0H571V360H41ZM254 578H571V1061H567L254 578Z" />
<glyph unicode="5" glyph-name="five" horiz-adv-x="1067" d="M125 35V281Q246 224 375 223Q484 223 552 279T621 424Q621 514 547 567T346 621Q268 621 182 602V1399H905V1122H453V848Q678 846 808 734T938 426Q938 225 797 104T424 -18Q270 -18 125 35Z" />
<glyph unicode="6" glyph-name="six" horiz-adv-x="1067" d="M80 469Q80 594 126 724T287 1040L516 1417H844L522 885Q565 893 608 893Q794 893 896 763T999 451Q999 250 869 116T545 -18Q338 -18 209 117T80 469ZM387 453Q387 347 431 285T549 223Q621 223 663
283T705 446Q705 552 664 611T547 670Q473 670 430 612T387 453Z" />
<glyph unicode="7" glyph-name="seven" horiz-adv-x="1067" d="M70 1122V1399H975V1337L489 -18L213 94L586 1122H70Z" />
<glyph unicode="8" glyph-name="eight" horiz-adv-x="1067" d="M66 387Q66 512 122 592T303 725Q113 827 113 1034Q113 1202 232 1309T537 1417Q717 1417 834 1309T952 1034Q952 823 758 725Q998 627 997 391Q997 237 879 110T528 -18Q301 -18 184 102T66 387ZM383
393Q383 293 423 236T532 178T641 236T680 397Q680 501 641 561T532 621Q460 621 422 560T383 393ZM408 1022Q408 805 537 805Q658 805 657 1022Q657 1221 533 1221T408 1022Z" />
<glyph unicode="9" glyph-name="nine" horiz-adv-x="1067" d="M72 948Q72 1149 202 1283T526 1417Q733 1417 863 1282T993 930Q993 699 842 451L555 -18H229L551 514Q508 506 465 506Q281 506 177 635T72 948ZM367 952Q367 846 409 788T526 729Q598 729 642 787T686
946Q686 1052 642 1114T524 1176Q452 1176 410 1115T367 952Z" />
<glyph unicode=":" glyph-name="colon" horiz-adv-x="555" d="M115 78T115 145T163 260T278 307T393 260T440 146T393 30T279 -18T163 30ZM115 694T115 761T163 876T278 924T393 877T440 762T393 646T279 598T163 646Z" />
<glyph unicode=";" glyph-name="semicolon" horiz-adv-x="555" d="M104 152Q104 220 151 266T266 313Q352 313 405 249T459 78Q459 -67 370 -166T113 -311V-260Q205 -180 219 -10Q104 35 104 152ZM115 694T115 761T163 876T278 924T393 877T440 762T393 646T279
598T163 646Z" />
<glyph unicode="&lt;" glyph-name="less" horiz-adv-x="1366" d="M123 569V795L1243 1262V993L463 682L1243 371V102L123 569Z" />
<glyph unicode="=" glyph-name="equal" horiz-adv-x="1366" d="M121 317V565H1245V317H121ZM121 799V1047H1245V799H121Z" />
<glyph unicode="&gt;" glyph-name="greater" horiz-adv-x="1366" d="M123 102V371L903 682L123 993V1262L1243 795V569L123 102Z" />
<glyph unicode="?" glyph-name="question" horiz-adv-x="724" d="M47 1149L111 1395Q199 1418 276 1417Q444 1417 546 1328T649 1094Q649 1010 602 919T500 761T397 612T350 461Q350 438 354 410H279Q197 531 197 645Q197 747 266 881T336 1073Q336 1126 299 1164T209
1202Q135 1202 74 1143L47 1149ZM156 78T156 145T203 260T317 307T433 260T481 146T433 30T318 -18T203 30Z" />
<glyph unicode="@" glyph-name="at" horiz-adv-x="1996" d="M217 500Q217 617 243 735T332 976T488 1190T728 1340T1053 1399Q1233 1399 1375 1337T1605 1170T1737 935T1782 659Q1782 497 1724 364T1578 156T1403 39T1243 -2Q1122 -2 1087 117Q966 -2 848 -2Q703
-2 613 117T522 428Q522 582 574 727T727 970T950 1069Q1024 1069 1077 1035T1186 922L1204 1034H1399L1274 244Q1266 205 1273 186T1309 166Q1340 166 1387 193T1486 274T1574 430T1610 659Q1610 921 1460 1075T1053 1229Q758 1229 574 1026T389 500Q389 185 567
-7T1038 -199Q1319 -199 1556 -12H1782Q1663 -166 1460 -266T1042 -367Q690 -367 454 -119T217 500ZM743 373Q743 271 779 214T881 156Q938 156 993 211Q1046 264 1081 415T1116 711Q1116 897 985 897Q874 897 809 741T743 373Z" />
<glyph unicode="A" glyph-name="A" horiz-adv-x="1087" d="M12 0L379 1407H709L1075 0H768L702 291H387L319 0H12ZM432 518H655L547 1026H543L432 518Z" />
<glyph unicode="B" glyph-name="B" horiz-adv-x="1153" d="M135 0V1399H608Q809 1399 914 1294T1020 1044Q1020 849 831 760Q1067 651 1067 412Q1067 238 944 119T612 0H135ZM453 227H555Q750 227 750 416Q750 498 707 552T575 606H453V227ZM453 834H520Q702 834
702 1004Q702 1172 520 1171H453V834Z" />
<glyph unicode="C" glyph-name="C" horiz-adv-x="1067" d="M76 686Q76 1018 230 1217T643 1417Q809 1417 958 1339V1071Q817 1153 719 1153Q576 1153 488 1040T399 705Q399 482 477 364T702 246Q819 246 969 358V86Q836 -18 643 -18Q391 -18 234 174T76 686Z" />
<glyph unicode="D" glyph-name="D" horiz-adv-x="1236" d="M135 1399H549Q676 1399 779 1360T951 1256T1066 1100T1132 913T1153 711Q1153 584 1120 463T1022 236T839 65T565 0H135V1399ZM453 236H528Q692 236 760 352T829 694Q829 1163 545 1163H453V236Z" />
<glyph unicode="E" glyph-name="E" horiz-adv-x="1044" d="M135 0V1399H950V1157H453V831H915V590H453V242H969V0H135Z" />
<glyph unicode="F" glyph-name="F" horiz-adv-x="917" d="M135 0V1399H870V1157H453V827H856V586H453V0H135Z" />
<glyph unicode="G" glyph-name="G" horiz-adv-x="1216" d="M78 678Q78 1000 255 1208T707 1417Q895 1417 1077 1307V1016Q983 1092 913 1122T750 1153Q584 1153 493 1031T401 682Q401 481 471 364T674 246Q746 246 809 283V518H651V754H1126V145Q911 -19 672 -18Q414
-18 246 178T78 678Z" />
<glyph unicode="H" glyph-name="H" horiz-adv-x="1259" d="M137 0V1399H455V827H805V1399H1122V0H805V586H455V0H137Z" />
<glyph unicode="I" glyph-name="I" horiz-adv-x="532" d="M104 1182T104 1249T152 1364T268 1411T383 1364T430 1250T383 1134T269 1085T153 1133ZM119 0V946H414V0H119Z" />
<glyph unicode="J" glyph-name="J" horiz-adv-x="598" d="M-55 -190Q-16 -200 4 -201Q141 -201 141 -16V1399H459V2Q459 -137 426 -236T339 -385T232 -454T121 -475Q51 -475 -37 -446L-55 -190Z" />
<glyph unicode="K" glyph-name="K" horiz-adv-x="1193" d="M111 0V1399H428V721H432L782 1399H1100L752 733L1188 0H834L432 676H428V0H111Z" />
<glyph unicode="L" glyph-name="L" horiz-adv-x="980" d="M135 0V1399H453V252H965V0H135Z" />
<glyph unicode="M" glyph-name="M" horiz-adv-x="1492" d="M139 0V1399H426L748 823L1069 1399H1356V0H1057V895H1053L778 365H717L442 895H438V0H139Z" />
<glyph unicode="N" glyph-name="N" horiz-adv-x="1259" d="M141 0V1399H436L815 608H819V1399H1118V0H842L444 825H440V0H141Z" />
<glyph unicode="O" glyph-name="O" horiz-adv-x="1259" d="M78 713Q78 885 125 1022T251 1244T427 1373T629 1417Q731 1417 825 1377T1000 1256T1130 1031T1180 698Q1180 540 1145 415T1055 209T925 77T778 4T629 -18Q523 -18 428 24T252 149T125 379T78 713ZM401
700Q401 479 452 368T629 256Q744 256 800 356T856 700Q856 835 840 925T771 1079T629 1143Q506 1143 454 1030T401 700Z" />
<glyph unicode="P" glyph-name="P" horiz-adv-x="1110" d="M135 0V1399H588Q815 1399 932 1273T1049 979Q1049 928 1039 878T998 770T918 670T782 598T586 569H453V0H135ZM453 811H545Q647 811 689 855T731 983Q731 1057 690 1107T555 1157H453V811Z" />
<glyph unicode="Q" glyph-name="Q" horiz-adv-x="1259" d="M78 707Q78 1051 239 1234T629 1417Q854 1417 999 1255Q1179 1054 1180 698Q1180 442 1088 266T821 18Q915 -97 1047 -96Q1086 -96 1139 -74L1149 -70L1178 -88L1006 -317Q840 -313 705 -219T508 -4Q301
49 190 234T78 707ZM401 700Q401 473 453 366T629 258Q750 258 803 362T856 700Q856 917 808 1030T631 1143Q508 1143 455 1033T401 700Z" />
<glyph unicode="R" glyph-name="R" horiz-adv-x="1130" d="M135 0V1399H592Q803 1399 922 1292T1042 1008Q1042 889 986 810T807 680Q862 649 905 554T1004 279T1100 0H770L694 262Q659 385 639 442T590 537T535 582T453 590V0H135ZM453 831H553Q635 831 680 874T725
999Q725 1157 549 1157H453V831Z" />
<glyph unicode="S" glyph-name="S" horiz-adv-x="917" d="M78 1061Q78 1213 193 1315T479 1417Q626 1417 784 1331V1069Q604 1169 514 1169Q457 1169 421 1143T385 1073Q385 1028 432 970T545 849L677 717Q744 647 791 556T838 373Q838 205 722 94T432 -18Q276
-18 90 92V393Q270 246 385 246Q442 246 478 278T514 362Q514 417 469 479T360 600T232 725T123 879T78 1061Z" />
<glyph unicode="T" glyph-name="T" horiz-adv-x="1024" d="M33 1157V1399H989V1157H670V0H352V1157H33Z" />
<glyph unicode="U" glyph-name="U" horiz-adv-x="1216" d="M119 475V1399H436V436Q436 350 481 298T608 246Q780 246 780 453V1399H1098V479Q1098 243 975 113T608 -18Q379 -18 249 102T119 475Z" />
<glyph unicode="V" glyph-name="V" horiz-adv-x="1110" d="M12 1399H334L549 678H553L756 1399H1077L629 -18H481L12 1399Z" />
<glyph unicode="W" glyph-name="W" horiz-adv-x="1744" d="M14 1399H319L518 659H522L745 1399H999L1219 659H1223L1425 1399H1731L1294 -18H1157L872 887H868L590 -18H453L14 1399Z" />
<glyph unicode="X" glyph-name="X" horiz-adv-x="1236" d="M35 0L444 741L76 1399H424L623 1014L823 1399H1169L801 741L1210 0H864L623 459L381 0H35Z" />
<glyph unicode="Y" glyph-name="Y" horiz-adv-x="1110" d="M18 1399H358L569 969L743 1399H1081L731 639V0H406V639L18 1399Z" />
<glyph unicode="Z" glyph-name="Z" horiz-adv-x="1024" d="M27 0L526 1157H82V1399H958L463 242H958V0H27Z" />
<glyph unicode="[" glyph-name="bracketleft" horiz-adv-x="768" d="M182 -451V1399H745V1186H471V-238H745V-451H182Z" />
<glyph unicode="\" glyph-name="backslash" horiz-adv-x="575" d="M12 1399H225L563 -18H356L12 1399Z" />
<glyph unicode="]" glyph-name="bracketright" horiz-adv-x="768" d="M23 -238H297V1186H23V1399H586V-451H23V-238Z" />
<glyph unicode="^" glyph-name="asciicircum" horiz-adv-x="1193" d="M115 692L485 1491H709L1079 692H795L598 1182L399 692H115Z" />
<glyph unicode="_" glyph-name="underscore" horiz-adv-x="1024" d="M-12 -154H1036V-256H-12V-154Z" />
<glyph unicode="`" glyph-name="grave" horiz-adv-x="681" d="M20 1417H381L553 1075H399L20 1417Z" />
<glyph unicode="a" glyph-name="a" horiz-adv-x="980" d="M47 219Q47 352 170 434T553 602V635Q553 764 434 764Q289 764 111 621V836Q209 906 299 935T504 965Q848 965 848 692V307Q848 239 853 222T877 205Q910 205 963 242V74Q816 -16 717 -16Q586 -16 565
115Q489 43 428 13T291 -18Q189 -18 118 50T47 219ZM313 281Q313 236 342 208T416 180Q475 180 553 244V471Q426 426 370 383T313 281Z" />
<glyph unicode="b" glyph-name="b" horiz-adv-x="1110" d="M119 0V1399H414V901Q529 964 633 965Q805 965 916 827T1028 475Q1028 268 916 129T635 -10Q514 -10 414 82V0H119ZM414 688V293Q480 205 565 205Q637 205 679 275T721 471Q721 600 676 675T553 750Q484
749 414 688Z" />
<glyph unicode="c" glyph-name="c" horiz-adv-x="874" d="M74 467Q74 684 207 824T545 965Q662 965 797 901V678Q695 739 606 739Q508 739 445 666T381 479Q381 356 446 281T616 205Q704 205 809 270V43Q662 -18 545 -18Q344 -18 209 120T74 467Z" />
<glyph unicode="d" glyph-name="d" horiz-adv-x="1110" d="M76 473Q76 690 180 827T449 965Q574 965 696 860V1399H991V0H696V94Q571 -19 440 -18Q282 -18 179 122T76 473ZM383 471Q383 344 424 274T539 203Q625 203 696 301V662Q618 740 547 739Q469 739 426
670T383 471Z" />
<glyph unicode="e" glyph-name="e" horiz-adv-x="960" d="M74 455Q74 676 192 820T494 965Q668 965 777 828Q883 697 883 447Q883 438 883 428H373Q383 307 444 243T610 178Q727 178 856 254V76Q696 -18 512 -18Q387 -18 296 28T160 148T95 299T74 455ZM373 563H610Q606
796 494 797Q373 796 373 563Z" />
<glyph unicode="f" glyph-name="f" horiz-adv-x="598" d="M55 778V946H147V1014Q147 1211 259 1314T541 1417Q615 1417 698 1399V1190Q635 1202 594 1202Q442 1202 442 1038V946H594V778H442V0H147V778H55Z" />
<glyph unicode="g" glyph-name="g" horiz-adv-x="980" d="M47 -221Q47 -145 102 -90T258 -12V-8Q121 35 121 145Q121 200 161 243T276 305Q98 418 98 610Q98 762 215 863T528 965H975V791H788Q882 689 883 565Q883 438 788 344Q735 291 652 267T505 242T392 228T344
176Q344 137 408 126Q458 117 520 117Q537 117 555 118Q565 118 575 118Q651 118 739 97Q839 73 895 18Q973 -60 973 -172Q973 -307 855 -391T504 -475Q373 -475 277 -449T134 -381T68 -300T47 -221ZM299 -197Q299 -314 516 -313Q731 -313 731 -201Q731 -82 514
-82Q416 -82 358 -113T299 -197ZM365 594Q365 391 498 391Q629 391 629 592Q629 782 496 782Q365 782 365 594Z" />
<glyph unicode="h" glyph-name="h" horiz-adv-x="1087" d="M115 1399H410V823H414Q510 964 676 965Q803 965 891 881T979 616V0H684V580Q684 668 659 709T571 750Q520 750 489 721T410 606V0H115V1399Z" />
<glyph unicode="i" glyph-name="i" horiz-adv-x="532" d="M104 1182T104 1249T152 1364T268 1411T383 1364T430 1250T383 1134T269 1085T153 1133ZM119 0V946H414V0H119Z" />
<glyph unicode="j" glyph-name="j" horiz-adv-x="532" d="M-6 -217Q74 -186 98 -149T123 -31V946H418V-14Q418 -241 331 -339T72 -475L-6 -217ZM104 1182T104 1249T152 1364T268 1411T383 1364T430 1250T383 1134T269 1085T153 1133Z" />
<glyph unicode="k" glyph-name="k" horiz-adv-x="1067" d="M119 0V1399H414V477L702 946H1012L733 481L1063 0H741L414 469V0H119Z" />
<glyph unicode="l" glyph-name="l" horiz-adv-x="532" d="M119 0V1399H414V0H119Z" />
<glyph unicode="m" glyph-name="m" horiz-adv-x="1665" d="M117 946H412V801H416Q529 965 696 965Q790 965 858 915T961 772Q1059 965 1249 965Q1368 965 1461 880T1554 629V0H1260V514Q1260 639 1241 692T1155 745Q1059 745 983 614V0H688V557Q688 745 578 745Q494
745 412 606V0H117V946Z" />
<glyph unicode="n" glyph-name="n" horiz-adv-x="1087" d="M115 946H410V813H414Q516 965 680 965Q817 965 899 877T981 627V0H686V580Q686 750 571 750Q469 750 410 598V0H115V946Z" />
<glyph unicode="o" glyph-name="o" horiz-adv-x="1067" d="M74 469Q74 696 211 830T532 965Q720 965 856 829T993 469Q993 254 864 115T532 -25Q333 -25 204 115T74 469ZM381 469Q381 190 532 190Q610 190 646 257T682 469Q682 750 532 750Q381 750 381 469Z" />
<glyph unicode="p" glyph-name="p" horiz-adv-x="1110" d="M119 946H414V856Q539 965 670 965Q826 965 928 824T1030 465Q1030 258 928 120T674 -18Q551 -18 414 88V-451H119V946ZM414 655V293Q488 211 565 211Q637 211 680 283T723 481Q723 608 684 679T575 750Q496
749 414 655Z" />
<glyph unicode="q" glyph-name="q" horiz-adv-x="1110" d="M80 467Q80 707 208 836T481 965Q596 965 696 891V946H991V-451H696V51Q590 -19 479 -18Q307 -18 194 120T80 467ZM387 473Q387 346 434 272T563 197Q631 197 696 264V668Q630 750 559 750Q479 750 433
676T387 473Z" />
<glyph unicode="r" glyph-name="r" horiz-adv-x="811" d="M115 946H387V588H391Q485 957 651 956Q733 956 821 901L758 639Q688 686 635 686Q526 686 468 524T410 145V0H115V946Z" />
<glyph unicode="s" glyph-name="s" horiz-adv-x="811" d="M66 664Q66 797 163 881T412 965Q566 965 719 879V684Q627 733 549 758Q479 778 410 778Q295 778 295 711Q295 676 342 650T456 598T593 541T709 444T756 289Q756 154 658 68T403 -18Q256 -18 82 61V281Q254
183 385 182Q434 182 464 203T494 264Q494 299 450 325T343 375T217 431T110 522T66 664Z" />
<glyph unicode="t" glyph-name="t" horiz-adv-x="811" d="M37 760V797L416 1239H467V946H737V760H467V358Q467 208 573 209Q636 209 752 279V61Q600 -19 485 -18Q358 -18 265 59T172 303V760H37Z" />
<glyph unicode="u" glyph-name="u" horiz-adv-x="1087" d="M104 338V946H399V354Q399 196 514 197Q633 197 678 346V946H973V0H678V121H674Q596 -18 412 -18Q279 -18 192 69T104 338Z" />
<glyph unicode="v" glyph-name="v" horiz-adv-x="980" d="M27 946H309L500 446H504L672 946H956L580 -18H426L27 946Z" />
<glyph unicode="w" glyph-name="w" horiz-adv-x="1449" d="M23 946H303L455 461H459L627 946H823L991 461H995L1147 946H1427L1075 -18H926L727 541H723L528 -18H377L23 946Z" />
<glyph unicode="x" glyph-name="x" horiz-adv-x="980" d="M23 0L322 481L23 946H350L485 707L614 946H944L653 485L961 0H633L496 256L350 0H23Z" />
<glyph unicode="y" glyph-name="y" horiz-adv-x="980" d="M10 946H309L489 514L659 946H958L385 -451H86L342 174L10 946Z" />
<glyph unicode="z" glyph-name="z" horiz-adv-x="917" d="M37 0L422 731H80V946H848L473 215H848V0H37Z" />
<glyph unicode="{" glyph-name="braceleft" horiz-adv-x="796" d="M63 352V594Q194 596 238 677T283 969Q283 1143 299 1215T371 1343Q461 1433 649 1434H748V1192H694Q608 1192 578 1161Q549 1132 543 1050T540 879T518 690T432 528Q397 493 356 473Q397 453
432 418Q491 359 517 258T540 68T543 -103T578 -215Q609 -246 694 -246H748V-487H649Q461 -487 371 -397Q316 -342 300 -270T283 -23Q283 188 239 269T63 352Z" />
<glyph unicode="|" glyph-name="bar" horiz-adv-x="1159" d="M453 -512V1536H702V-512H453Z" />
<glyph unicode="}" glyph-name="braceright" horiz-adv-x="796" d="M49 -246H102Q188 -246 219 -215Q248 -186 254 -103Q258 -48 258 9Q258 38 257 68Q257 77 257 87Q257 167 280 257Q306 358 365 418Q400 453 440 473Q399 493 365 528Q306 587 280 689Q257 780
257 860Q257 870 257 879Q258 908 258 937Q258 995 254 1050Q248 1133 219 1161Q188 1192 102 1192H49V1434H147Q335 1434 426 1343Q481 1288 497 1216T514 969Q514 758 558 677T733 594V352Q602 350 558 269T514 -23Q514 -197 498 -269T426 -397Q336 -487 147
-487H49V-246Z" />
<glyph unicode="~" glyph-name="asciitilde" horiz-adv-x="1366" d="M123 526V782Q285 923 449 924Q545 924 708 845T946 766Q1075 766 1243 915V662Q1081 519 924 518Q832 518 659 598Q499 678 430 678Q281 678 123 526Z" />
</font>
</defs>
</svg>
